<svg width="180" height="39" viewBox="0 0 180 39" fill="none" xmlns="http://www.w3.org/2000/svg">
<path d="M12.25 13.95C12.05 13.9833 11.85 14 11.65 14C11.45 14 11.2333 14 11 14C9.6 14 8.08333 13.9 6.45 13.7C4.81667 13.5 3.35 13.1167 2.05 12.55C1.48333 12.2833 1 11.9333 0.600001 11.5C0.2 11.0667 0 10.5667 0 10C0 9.23333 0.216667 8.63333 0.650001 8.2C1.08333 7.76667 1.75 7.55 2.65 7.55C3.11667 7.55 3.65 7.63333 4.25 7.8C4.85 7.93333 5.58333 8.13333 6.45 8.4C7.21667 8.66667 8.05 8.86667 8.95 9C9.85 9.13333 10.75 9.2 11.65 9.2C11.8167 9.2 11.9833 9.2 12.15 9.2C12.35 9.2 12.5333 9.18333 12.7 9.15C12.7333 8.55 12.7833 7.9 12.85 7.2C12.9167 6.5 13.0333 5.86667 13.2 5.3C13.4333 4.46667 13.7667 3.83333 14.2 3.4C14.6667 2.93333 15.2833 2.7 16.05 2.7C16.8167 2.7 17.4167 2.91667 17.85 3.35C18.2833 3.78333 18.5 4.35 18.5 5.05C18.5 5.41667 18.45 5.86667 18.35 6.4C18.25 6.9 18.1667 7.35 18.1 7.75C18.0333 7.95 17.9833 8.13333 17.95 8.3C17.95 8.43333 17.9333 8.58333 17.9 8.75C18.5 8.68333 19.0167 8.61667 19.45 8.55C19.9167 8.45 20.3667 8.38333 20.8 8.35C21.2667 8.28333 21.75 8.23333 22.25 8.2C22.75 8.16667 23.3333 8.15 24 8.15C25.1 8.15 26.0833 8.33333 26.95 8.7C27.8167 9.06667 28.25 9.71667 28.25 10.65C28.25 11.6167 27.95 12.3 27.35 12.7C26.7833 13.1 26.1833 13.3 25.55 13.3C25.15 13.3 24.8 13.3 24.5 13.3C24.2333 13.2667 23.9667 13.25 23.7 13.25C23.4333 13.2167 23.15 13.2 22.85 13.2C22.5833 13.1667 22.25 13.15 21.85 13.15C20.9833 13.15 20.1833 13.2 19.45 13.3C18.75 13.3667 17.9833 13.4667 17.15 13.6C17.05 14.5333 16.95 15.5167 16.85 16.55C16.7833 17.5833 16.6833 18.7667 16.55 20.1C16.4833 20.9667 16.4167 21.9 16.35 22.9C16.2833 23.8667 16.25 24.7833 16.25 25.65C16.25 25.8167 16.25 26.0333 16.25 26.3C16.25 26.5333 16.25 26.7833 16.25 27.05C16.2833 27.3167 16.3 27.5667 16.3 27.8C16.3333 28.0333 16.35 28.2167 16.35 28.35C16.4167 29.15 16.7 29.55 17.2 29.55C17.7333 29.55 18.2 29.3 18.6 28.8C19.1333 28.1333 19.6 27.4333 20 26.7C20.4 25.9667 20.7667 25.2667 21.1 24.6C21.4333 23.9667 21.7833 23.5 22.15 23.2C22.5167 22.9 22.9833 22.75 23.55 22.75C24.0167 22.75 24.4333 22.9167 24.8 23.25C25.1667 23.5833 25.35 24.0167 25.35 24.55C25.35 25.1833 25.1833 25.9 24.85 26.7C24.55 27.5 24.15 28.3167 23.65 29.15C23.1833 29.95 22.6667 30.7333 22.1 31.5C21.5667 32.2333 21.05 32.8667 20.55 33.4C19.9833 34 19.35 34.55 18.65 35.05C17.9833 35.5167 17.1 35.75 16 35.75C14.9 35.75 14 35.4 13.3 34.7C12.6333 33.9667 12.15 33.1167 11.85 32.15C11.6167 31.45 11.4667 30.6667 11.4 29.8C11.3667 28.9 11.35 27.9167 11.35 26.85C11.35 24.7167 11.45 22.5667 11.65 20.4C11.85 18.2 12.05 16.05 12.25 13.95Z" fill="url(#paint0_linear_649:1961)"/>
<path d="M24.7039 38.45C24.0039 38.45 23.4206 38.1 22.9539 37.4C22.4872 36.7333 22.2039 36 22.1039 35.2C22.0372 34.6 21.9872 33.8833 21.9539 33.05C21.9206 32.2167 21.8872 31.3333 21.8539 30.4C21.8206 29.4667 21.8039 28.5333 21.8039 27.6C21.8039 26.6333 21.8039 25.7333 21.8039 24.9C21.8039 24.5333 21.8039 24.0333 21.8039 23.4C21.8372 22.7333 21.8706 21.9833 21.9039 21.15C21.9706 20.2833 22.0372 19.3667 22.1039 18.4C22.1706 17.4 22.2539 16.4 22.3539 15.4C22.4539 14.4 22.5539 13.3833 22.6539 12.35C22.7872 11.3167 22.9206 10.3167 23.0539 9.35C23.2206 8.35 23.3872 7.41667 23.5539 6.55C23.7539 5.68333 23.9539 4.91667 24.1539 4.25C24.4206 3.38333 24.8372 2.73333 25.4039 2.3C25.9706 1.83333 26.5872 1.6 27.2539 1.6C28.1206 1.6 28.7872 1.9 29.2539 2.5C29.7206 3.06667 29.9539 3.75 29.9539 4.55C29.9539 5.45 29.8706 6.51667 29.7039 7.75C29.5706 8.95 29.3706 10.25 29.1039 11.65C28.8706 13.0167 28.5706 14.4 28.2039 15.8C27.8706 17.2 27.4872 18.5167 27.0539 19.75C26.8872 20.85 26.7872 21.8 26.7539 22.6C26.7539 23.3667 26.7539 24.3167 26.7539 25.45C26.7539 25.6167 26.7539 25.8 26.7539 26C26.7872 26.2 26.8872 26.3 27.0539 26.3C27.3872 26.3 27.7372 26.0167 28.1039 25.45C29.1039 23.8833 30.0872 22.55 31.0539 21.45C32.0539 20.35 33.1206 19.8 34.2539 19.8C34.9872 19.8 35.5372 20.05 35.9039 20.55C36.3039 21.0167 36.5039 21.9 36.5039 23.2C36.5039 24.3 36.4706 25.4167 36.4039 26.55C36.3706 27.65 36.3539 28.8333 36.3539 30.1C36.3539 30.4667 36.3872 30.8 36.4539 31.1C36.5539 31.3667 36.7706 31.5 37.1039 31.5C37.4372 31.5 37.7206 31.3833 37.9539 31.15C38.2206 30.9167 38.4872 30.6333 38.7539 30.3C39.2872 29.6 39.8206 28.8 40.3539 27.9C40.9206 26.9667 41.4039 26.1 41.8039 25.3C42.0039 24.9 42.2872 24.5667 42.6539 24.3C43.0206 24.0333 43.4039 23.9 43.8039 23.9C44.3706 23.9 44.8372 24.0833 45.2039 24.45C45.6039 24.7833 45.8039 25.2833 45.8039 25.95C45.8039 26.25 45.7206 26.6333 45.5539 27.1C45.4206 27.5333 45.2372 27.9833 45.0039 28.45C44.7706 28.9167 44.5206 29.4 44.2539 29.9C43.9872 30.3667 43.7372 30.7833 43.5039 31.15C43.0039 31.95 42.3539 32.8667 41.5539 33.9C40.7539 34.9333 39.9039 35.8333 39.0039 36.6C38.6706 36.8667 38.2039 37.1333 37.6039 37.4C37.0372 37.7 36.3706 37.85 35.6039 37.85C34.7372 37.85 34.0206 37.6 33.4539 37.1C32.9206 36.5667 32.5372 35.9167 32.3039 35.15C32.0706 34.3833 31.9039 33.55 31.8039 32.65C31.7372 31.75 31.7039 30.7833 31.7039 29.75C31.7039 29.4167 31.6706 29.1167 31.6039 28.85C31.5706 28.5833 31.4372 28.45 31.2039 28.45C31.0372 28.45 30.8706 28.6167 30.7039 28.95C30.5372 29.25 30.3372 29.6333 30.1039 30.1C29.6372 31.0667 29.1372 32.1167 28.6039 33.25C28.0706 34.3833 27.5206 35.5167 26.9539 36.65C26.6872 37.15 26.3539 37.5667 25.9539 37.9C25.5872 38.2667 25.1706 38.45 24.7039 38.45Z" fill="url(#paint1_linear_649:1961)"/>
<path d="M49.7766 37.5C48.4432 37.5 47.3099 37.2333 46.3766 36.7C45.4432 36.1333 44.6766 35.3833 44.0766 34.45C43.5099 33.4833 43.0932 32.35 42.8266 31.05C42.5599 29.75 42.4266 28.3667 42.4266 26.9C42.4266 25.4333 42.6432 23.9667 43.0766 22.5C43.5099 21.0333 44.0932 19.7167 44.8266 18.55C45.5932 17.35 46.4766 16.3833 47.4766 15.65C48.4766 14.9167 49.5432 14.55 50.6766 14.55C52.3766 14.55 53.6599 15.05 54.5266 16.05C55.4266 17.0167 55.8766 18.2 55.8766 19.6C55.8766 21.1667 55.6266 22.5333 55.1266 23.7C54.6266 24.8333 53.9432 25.8667 53.0766 26.8C52.5766 27.3333 51.9599 27.8167 51.2266 28.25C50.4932 28.65 49.7599 28.9167 49.0266 29.05C48.7599 29.1167 48.5099 29.1667 48.2766 29.2C48.0432 29.2 47.8432 29.2167 47.6766 29.25C47.6766 29.9833 47.7932 30.65 48.0266 31.25C48.4599 32.25 49.1099 32.75 49.9766 32.75C50.8099 32.75 51.5599 32.5333 52.2266 32.1C52.7266 31.7667 53.1932 31.3333 53.6266 30.8C54.0932 30.2667 54.5266 29.6833 54.9266 29.05C55.3266 28.3833 55.7099 27.7 56.0766 27C56.4766 26.2667 56.8766 25.5667 57.2766 24.9C57.7432 24.1 58.4099 23.7 59.2766 23.7C59.8766 23.7 60.3432 23.9333 60.6766 24.4C61.0099 24.8333 61.1766 25.3333 61.1766 25.9C61.1766 26.4333 61.0266 27.0167 60.7266 27.65C60.4266 28.25 60.1099 28.8667 59.7766 29.5C59.1766 30.6667 58.3766 31.8833 57.3766 33.15C56.3766 34.4167 55.1266 35.5167 53.6266 36.45C52.4599 37.15 51.1766 37.5 49.7766 37.5ZM47.7766 24.5C47.7766 24.7 47.8599 24.8 48.0266 24.8C48.4266 24.8 48.8099 24.6667 49.1766 24.4C49.5766 24.1 49.9266 23.7333 50.2266 23.3C50.5599 22.8667 50.8266 22.3833 51.0266 21.85C51.2266 21.2833 51.3266 20.75 51.3266 20.25C51.3266 19.55 51.0599 19.2 50.5266 19.2C50.1932 19.2 49.8599 19.3833 49.5266 19.75C49.2266 20.1167 48.9432 20.5833 48.6766 21.15C48.4099 21.6833 48.1932 22.25 48.0266 22.85C47.8599 23.45 47.7766 24 47.7766 24.5Z" fill="url(#paint2_linear_649:1961)"/>
<path d="M74.0926 37.25C73.2592 37.25 72.5259 37.0667 71.8926 36.7C71.2926 36.3333 70.7926 35.85 70.3926 35.25C69.9926 34.6167 69.6926 33.9167 69.4926 33.15C69.2926 32.35 69.1926 31.55 69.1926 30.75C69.1926 28.9167 69.4092 27.2 69.8426 25.6C70.2759 24 70.8926 22.6167 71.6926 21.45C72.4926 20.25 73.4592 19.3167 74.5926 18.65C75.7592 17.95 77.0592 17.6 78.4926 17.6C79.0926 17.6 79.6926 17.6833 80.2926 17.85C80.8926 18.0167 81.4259 18.25 81.8926 18.55C82.3926 18.85 82.7926 19.2333 83.0926 19.7C83.3926 20.1333 83.5426 20.6333 83.5426 21.2C83.5426 22.4667 82.9092 23.2333 81.6426 23.5C82.1426 23.8333 82.3926 24.45 82.3926 25.35C82.3926 26.1833 82.3926 27.0333 82.3926 27.9C82.4259 28.7333 82.4426 29.6833 82.4426 30.75C82.4426 31.0167 82.4759 31.25 82.5426 31.45C82.6426 31.6167 82.7926 31.7 82.9926 31.7C83.3592 31.7 83.7592 31.3167 84.1926 30.55C84.3926 30.1833 84.6426 29.7 84.9426 29.1C85.2426 28.5 85.5426 27.8833 85.8426 27.25C86.1426 26.6167 86.4259 26.0167 86.6926 25.45C86.9926 24.85 87.2426 24.3667 87.4426 24C87.6426 23.6333 87.8926 23.2833 88.1926 22.95C88.5259 22.6167 88.9259 22.45 89.3926 22.45C90.0592 22.45 90.5259 22.6833 90.7926 23.15C91.0592 23.6167 91.1926 24.1167 91.1926 24.65C91.1926 24.95 91.1092 25.3833 90.9426 25.95C90.7759 26.4833 90.5759 27.0333 90.3426 27.6C90.1426 28.1667 89.9259 28.7167 89.6926 29.25C89.4592 29.75 89.2759 30.1333 89.1426 30.4C88.6759 31.2667 88.1259 32.2167 87.4926 33.25C86.8926 34.2833 86.1592 35.1833 85.2926 35.95C84.8592 36.3167 84.3592 36.6167 83.7926 36.85C83.2259 37.0833 82.5759 37.2 81.8426 37.2C81.2759 37.2 80.7592 37.0833 80.2926 36.85C79.8259 36.6167 79.4426 36.2333 79.1426 35.7C78.9092 35.3 78.7426 34.9833 78.6426 34.75C78.5759 34.5167 78.4592 34.4 78.2926 34.4C78.1592 34.4 78.0426 34.4833 77.9426 34.65C77.8759 34.8167 77.7592 35.0167 77.5926 35.25C77.2926 35.7167 76.8592 36.1667 76.2926 36.6C75.7592 37.0333 75.0259 37.25 74.0926 37.25ZM74.8426 32.35C75.0759 32.35 75.3092 32.25 75.5426 32.05C75.7759 31.8167 75.9759 31.55 76.1426 31.25C76.4759 30.6833 76.7426 30.0833 76.9426 29.45C77.1759 28.7833 77.3759 28.15 77.5426 27.55C77.6759 27.0167 77.7759 26.5 77.8426 26C77.9426 25.4667 78.0426 25.0333 78.1426 24.7C78.2759 24.3333 78.4426 24.0667 78.6426 23.9C78.8426 23.7333 79.0759 23.5833 79.3426 23.45C79.0759 23.3833 78.9092 23.2667 78.8426 23.1C78.7759 22.9333 78.7092 22.7667 78.6426 22.6C78.6092 22.4333 78.5259 22.3 78.3926 22.2C78.2926 22.0667 78.0759 22 77.7426 22C77.3092 22 76.8592 22.25 76.3926 22.75C75.9592 23.25 75.5426 23.9 75.1426 24.7C74.7759 25.5 74.4759 26.3833 74.2426 27.35C74.0092 28.2833 73.8926 29.2 73.8926 30.1C73.8926 30.6 73.9592 31.1 74.0926 31.6C74.2259 32.1 74.4759 32.35 74.8426 32.35Z" fill="url(#paint3_linear_649:1961)"/>
<path d="M86.8961 25.15C87.0294 24.7833 87.1794 24.4167 87.3461 24.05C87.5461 23.65 87.7128 23.2833 87.8461 22.95C88.0128 22.5167 88.1294 22.1667 88.1961 21.9C88.2628 21.6 88.2961 21.2667 88.2961 20.9C88.2961 20.5333 88.2461 20.2667 88.1461 20.1C88.0794 19.9 88.0461 19.6833 88.0461 19.45C88.0461 19.05 88.1294 18.6333 88.2961 18.2C88.4628 17.7667 88.6961 17.3833 88.9961 17.05C89.2961 16.7167 89.6461 16.45 90.0461 16.25C90.4461 16.0167 90.8794 15.9 91.3461 15.9C91.9794 15.9 92.4628 16.1 92.7961 16.5C93.1628 16.8667 93.3461 17.3 93.3461 17.8C93.3461 18.2667 93.2961 18.5667 93.1961 18.7C93.1294 18.8 93.0961 18.95 93.0961 19.15C93.0961 19.5833 93.3128 19.8 93.7461 19.8C94.4128 19.8333 95.1128 19.9167 95.8461 20.05C96.6128 20.15 97.2294 20.4167 97.6961 20.85C97.9961 21.15 98.2294 21.55 98.3961 22.05C98.5961 22.55 98.6961 23.0333 98.6961 23.5C98.6961 23.9667 98.6294 24.4667 98.4961 25C98.3628 25.5333 98.2128 26.0667 98.0461 26.6C97.8794 27.1333 97.7294 27.6167 97.5961 28.05C97.4628 28.4833 97.3961 28.8 97.3961 29C97.3961 29.2667 97.4294 29.5 97.4961 29.7C97.5628 29.9 97.7128 30 97.9461 30C98.3128 30 98.6961 29.7833 99.0961 29.35C99.6628 28.7167 100.163 27.9833 100.596 27.15C101.063 26.2833 101.463 25.5333 101.796 24.9C102.196 24.1333 102.579 23.55 102.946 23.15C103.346 22.7167 103.829 22.5 104.396 22.5C104.929 22.5 105.379 22.6667 105.746 23C106.146 23.3333 106.346 23.7667 106.346 24.3C106.346 24.7667 106.229 25.3167 105.996 25.95C105.763 26.5833 105.496 27.2 105.196 27.8C104.763 28.6667 104.279 29.55 103.746 30.45C103.246 31.3167 102.596 32.2333 101.796 33.2C101.129 33.9667 100.329 34.6667 99.3961 35.3C98.4961 35.9333 97.4461 36.25 96.2461 36.25C95.6461 36.25 95.0794 36.1333 94.5461 35.9C94.0461 35.6333 93.6128 35.3 93.2461 34.9C92.8794 34.5 92.5794 34.05 92.3461 33.55C92.1461 33.05 92.0461 32.55 92.0461 32.05C92.0461 31.2167 92.1128 30.45 92.2461 29.75C92.3794 29.05 92.5294 28.4167 92.6961 27.85C92.8961 27.25 93.0628 26.7333 93.1961 26.3C93.3294 25.8333 93.3961 25.4167 93.3961 25.05C93.3961 24.7833 93.2961 24.5833 93.0961 24.45C92.8961 24.2833 92.6628 24.2 92.3961 24.2C92.2294 24.2 92.0961 24.2833 91.9961 24.45C91.8961 24.5833 91.7961 24.75 91.6961 24.95C91.4628 25.3833 91.2461 25.85 91.0461 26.35C90.8461 26.85 90.6128 27.3 90.3461 27.7C90.0794 28.0667 89.7794 28.3333 89.4461 28.5C89.1461 28.6333 88.8128 28.7 88.4461 28.7C88.0128 28.7 87.5961 28.5333 87.1961 28.2C86.7961 27.8333 86.5961 27.4 86.5961 26.9C86.5961 26.5333 86.6128 26.2167 86.6461 25.95C86.7128 25.6833 86.7961 25.4167 86.8961 25.15Z" fill="url(#paint4_linear_649:1961)"/>
<path d="M103.412 13.95C103.212 13.9833 103.012 14 102.812 14C102.612 14 102.395 14 102.162 14C100.762 14 99.2454 13.9 97.6121 13.7C95.9788 13.5 94.5121 13.1167 93.2121 12.55C92.6454 12.2833 92.1621 11.9333 91.7621 11.5C91.3621 11.0667 91.1621 10.5667 91.1621 10C91.1621 9.23333 91.3788 8.63333 91.8121 8.2C92.2454 7.76667 92.9121 7.55 93.8121 7.55C94.2788 7.55 94.8121 7.63333 95.4121 7.8C96.0121 7.93333 96.7454 8.13333 97.6121 8.4C98.3788 8.66667 99.2121 8.86667 100.112 9C101.012 9.13333 101.912 9.2 102.812 9.2C102.979 9.2 103.145 9.2 103.312 9.2C103.512 9.2 103.695 9.18333 103.862 9.15C103.895 8.55 103.945 7.9 104.012 7.2C104.079 6.5 104.195 5.86667 104.362 5.3C104.595 4.46667 104.929 3.83333 105.362 3.4C105.829 2.93333 106.445 2.7 107.212 2.7C107.979 2.7 108.579 2.91667 109.012 3.35C109.445 3.78333 109.662 4.35 109.662 5.05C109.662 5.41667 109.612 5.86667 109.512 6.4C109.412 6.9 109.329 7.35 109.262 7.75C109.195 7.95 109.145 8.13333 109.112 8.3C109.112 8.43333 109.095 8.58333 109.062 8.75C109.662 8.68333 110.179 8.61667 110.612 8.55C111.079 8.45 111.529 8.38333 111.962 8.35C112.429 8.28333 112.912 8.23333 113.412 8.2C113.912 8.16667 114.495 8.15 115.162 8.15C116.262 8.15 117.245 8.33333 118.112 8.7C118.979 9.06667 119.412 9.71667 119.412 10.65C119.412 11.6167 119.112 12.3 118.512 12.7C117.945 13.1 117.345 13.3 116.712 13.3C116.312 13.3 115.962 13.3 115.662 13.3C115.395 13.2667 115.129 13.25 114.862 13.25C114.595 13.2167 114.312 13.2 114.012 13.2C113.745 13.1667 113.412 13.15 113.012 13.15C112.145 13.15 111.345 13.2 110.612 13.3C109.912 13.3667 109.145 13.4667 108.312 13.6C108.212 14.5333 108.112 15.5167 108.012 16.55C107.945 17.5833 107.845 18.7667 107.712 20.1C107.645 20.9667 107.579 21.9 107.512 22.9C107.445 23.8667 107.412 24.7833 107.412 25.65C107.412 25.8167 107.412 26.0333 107.412 26.3C107.412 26.5333 107.412 26.7833 107.412 27.05C107.445 27.3167 107.462 27.5667 107.462 27.8C107.495 28.0333 107.512 28.2167 107.512 28.35C107.579 29.15 107.862 29.55 108.362 29.55C108.895 29.55 109.362 29.3 109.762 28.8C110.295 28.1333 110.762 27.4333 111.162 26.7C111.562 25.9667 111.929 25.2667 112.262 24.6C112.595 23.9667 112.945 23.5 113.312 23.2C113.679 22.9 114.145 22.75 114.712 22.75C115.179 22.75 115.595 22.9167 115.962 23.25C116.329 23.5833 116.512 24.0167 116.512 24.55C116.512 25.1833 116.345 25.9 116.012 26.7C115.712 27.5 115.312 28.3167 114.812 29.15C114.345 29.95 113.829 30.7333 113.262 31.5C112.729 32.2333 112.212 32.8667 111.712 33.4C111.145 34 110.512 34.55 109.812 35.05C109.145 35.5167 108.262 35.75 107.162 35.75C106.062 35.75 105.162 35.4 104.462 34.7C103.795 33.9667 103.312 33.1167 103.012 32.15C102.779 31.45 102.629 30.6667 102.562 29.8C102.529 28.9 102.512 27.9167 102.512 26.85C102.512 24.7167 102.612 22.5667 102.812 20.4C103.012 18.2 103.212 16.05 103.412 13.95Z" fill="url(#paint5_linear_649:1961)"/>
<path d="M116.795 38.6C116.095 38.6 115.412 38.4 114.745 38C114.078 37.6 113.562 36.9 113.195 35.9C112.895 35.0333 112.695 34.1 112.595 33.1C112.495 32.0667 112.445 31.0167 112.445 29.95C112.445 29.0833 112.462 28.2 112.495 27.3C112.528 26.3667 112.578 25.5667 112.645 24.9C112.778 23.7333 113.062 22.8333 113.495 22.2C113.928 21.5667 114.578 21.25 115.445 21.25C116.278 21.25 116.845 21.55 117.145 22.15C117.478 22.75 117.645 23.4333 117.645 24.2C117.645 24.9667 117.595 25.85 117.495 26.85C117.395 27.8167 117.345 28.8333 117.345 29.9C117.345 30.3333 117.378 30.75 117.445 31.15C117.545 31.5167 117.778 31.7 118.145 31.7C118.512 31.7 118.778 31.5833 118.945 31.35C119.112 31.1167 119.312 30.8667 119.545 30.6C120.145 29.8333 120.678 28.9667 121.145 28C121.612 27 122.078 26.05 122.545 25.15C122.778 24.6833 123.095 24.35 123.495 24.15C123.895 23.95 124.278 23.85 124.645 23.85C125.245 23.85 125.712 24.0333 126.045 24.4C126.412 24.7333 126.595 25.2 126.595 25.8C126.595 26.3667 126.395 27.05 125.995 27.85C125.628 28.6167 125.262 29.3167 124.895 29.95C124.328 30.9167 123.695 32.0333 122.995 33.3C122.328 34.5333 121.512 35.7 120.545 36.8C120.145 37.2667 119.628 37.6833 118.995 38.05C118.362 38.4167 117.628 38.6 116.795 38.6ZM116.945 18.8C116.112 18.8 115.428 18.5833 114.895 18.15C114.395 17.6833 114.145 16.9833 114.145 16.05C114.145 15.15 114.445 14.4667 115.045 14C115.645 13.5 116.328 13.25 117.095 13.25C117.862 13.25 118.495 13.5333 118.995 14.1C119.495 14.6667 119.745 15.3167 119.745 16.05C119.745 16.7833 119.478 17.4333 118.945 18C118.412 18.5333 117.745 18.8 116.945 18.8Z" fill="url(#paint6_linear_649:1961)"/>
<path d="M130.816 37.7C128.716 37.7 127.099 37.0667 125.966 35.8C124.866 34.5333 124.316 32.75 124.316 30.45C124.316 28.85 124.499 27.35 124.866 25.95C125.266 24.5167 125.816 23.2667 126.516 22.2C127.216 21.1333 128.049 20.2833 129.016 19.65C130.016 19.0167 131.116 18.7 132.316 18.7C133.616 18.7 134.683 19.1 135.516 19.9C136.349 20.7 136.766 21.75 136.766 23.05C136.766 23.65 136.666 24.2333 136.466 24.8C136.299 25.3667 136.049 25.8833 135.716 26.35C135.416 26.8167 135.033 27.2 134.566 27.5C134.099 27.7667 133.583 27.9 133.016 27.9C132.516 27.9 132.116 27.75 131.816 27.45C131.516 27.15 131.366 26.7667 131.366 26.3C131.366 26.0667 131.399 25.8667 131.466 25.7C131.533 25.5333 131.616 25.3833 131.716 25.25C131.816 25.1167 131.899 24.9833 131.966 24.85C132.033 24.7167 132.066 24.5667 132.066 24.4C132.066 24.1667 131.949 24.05 131.716 24.05C131.383 24.05 131.083 24.2167 130.816 24.55C130.549 24.85 130.299 25.2333 130.066 25.7C129.833 26.1667 129.616 26.7333 129.416 27.4C129.216 28.0333 129.116 28.8833 129.116 29.95C129.116 30.9833 129.333 31.7667 129.766 32.3C130.233 32.8333 130.866 33.1 131.666 33.1C132.333 33.1 132.983 32.85 133.616 32.35C134.283 31.85 134.899 31.2333 135.466 30.5C136.033 29.7333 136.549 28.9 137.016 28C137.483 27.0667 137.899 26.2 138.266 25.4C138.466 24.9333 138.766 24.5667 139.166 24.3C139.566 24 139.999 23.85 140.466 23.85C141.066 23.85 141.533 24.0333 141.866 24.4C142.233 24.7333 142.416 25.1667 142.416 25.7C142.416 26.3333 142.283 26.9333 142.016 27.5C141.583 28.4333 141.016 29.45 140.316 30.55C139.649 31.65 138.949 32.6333 138.216 33.5C137.316 34.5667 136.249 35.5333 135.016 36.4C133.783 37.2667 132.383 37.7 130.816 37.7Z" fill="url(#paint7_linear_649:1961)"/>
<path d="M149.855 35.55C149.388 35.9167 148.838 36.25 148.205 36.55C147.572 36.85 146.872 37 146.105 37C145.205 37 144.422 36.7667 143.755 36.3C143.088 35.8333 142.538 35.2 142.105 34.4C141.705 33.6333 141.372 32.7167 141.105 31.65C140.872 30.55 140.755 29.3167 140.755 27.95C140.755 26.25 140.822 24.55 140.955 22.85C141.122 21.15 141.288 19.5667 141.455 18.1C141.722 15.7333 142.055 13.3333 142.455 10.9C142.888 8.43333 143.438 6.2 144.105 4.2C144.505 3 145.022 2 145.655 1.2C146.288 0.4 147.088 0 148.055 0C148.588 0 149.055 0.116666 149.455 0.349998C149.855 0.583333 150.188 0.899999 150.455 1.3C150.722 1.66667 150.905 2.08333 151.005 2.55C151.138 3.01667 151.205 3.5 151.205 4C151.205 4.76667 151.138 5.61667 151.005 6.55C150.905 7.45 150.755 8.38333 150.555 9.35C150.355 10.3167 150.122 11.3 149.855 12.3C149.588 13.2667 149.322 14.1833 149.055 15.05C148.622 16.45 148.138 17.8167 147.605 19.15C147.105 20.4833 146.505 21.9667 145.805 23.6C145.672 24.2667 145.588 24.85 145.555 25.35C145.555 25.8167 145.555 26.4667 145.555 27.3C145.555 28.7667 145.672 29.85 145.905 30.55C146.138 31.2167 146.572 31.55 147.205 31.55C147.472 31.55 147.738 31.4833 148.005 31.35C148.272 31.1833 148.522 30.9833 148.755 30.75C149.222 30.2833 149.605 29.8167 149.905 29.35C150.238 28.8833 150.538 28.4333 150.805 28C151.072 27.5667 151.305 27.1167 151.505 26.65C151.705 26.15 151.922 25.7 152.155 25.3C152.422 24.8667 152.722 24.5167 153.055 24.25C153.388 23.9833 153.788 23.85 154.255 23.85C154.855 23.85 155.338 24.0333 155.705 24.4C156.105 24.7333 156.305 25.1667 156.305 25.7C156.305 26.0333 156.255 26.3667 156.155 26.7C156.055 27.0333 155.922 27.3667 155.755 27.7C155.322 28.6333 154.772 29.6167 154.105 30.65C153.438 31.6833 152.738 32.6333 152.005 33.5C151.405 34.2333 150.688 34.9167 149.855 35.55Z" fill="url(#paint8_linear_649:1961)"/>
<path d="M161.154 37.5C159.82 37.5 158.687 37.2333 157.754 36.7C156.82 36.1333 156.054 35.3833 155.454 34.45C154.887 33.4833 154.47 32.35 154.204 31.05C153.937 29.75 153.804 28.3667 153.804 26.9C153.804 25.4333 154.02 23.9667 154.454 22.5C154.887 21.0333 155.47 19.7167 156.204 18.55C156.97 17.35 157.854 16.3833 158.854 15.65C159.854 14.9167 160.92 14.55 162.054 14.55C163.754 14.55 165.037 15.05 165.904 16.05C166.804 17.0167 167.254 18.2 167.254 19.6C167.254 21.1667 167.004 22.5333 166.504 23.7C166.004 24.8333 165.32 25.8667 164.454 26.8C163.954 27.3333 163.337 27.8167 162.604 28.25C161.87 28.65 161.137 28.9167 160.404 29.05C160.137 29.1167 159.887 29.1667 159.654 29.2C159.42 29.2 159.22 29.2167 159.054 29.25C159.054 29.9833 159.17 30.65 159.404 31.25C159.837 32.25 160.487 32.75 161.354 32.75C162.187 32.75 162.937 32.5333 163.604 32.1C164.104 31.7667 164.57 31.3333 165.004 30.8C165.47 30.2667 165.904 29.6833 166.304 29.05C166.704 28.3833 167.087 27.7 167.454 27C167.854 26.2667 168.254 25.5667 168.654 24.9C169.12 24.1 169.787 23.7 170.654 23.7C171.254 23.7 171.72 23.9333 172.054 24.4C172.387 24.8333 172.554 25.3333 172.554 25.9C172.554 26.4333 172.404 27.0167 172.104 27.65C171.804 28.25 171.487 28.8667 171.154 29.5C170.554 30.6667 169.754 31.8833 168.754 33.15C167.754 34.4167 166.504 35.5167 165.004 36.45C163.837 37.15 162.554 37.5 161.154 37.5ZM159.154 24.5C159.154 24.7 159.237 24.8 159.404 24.8C159.804 24.8 160.187 24.6667 160.554 24.4C160.954 24.1 161.304 23.7333 161.604 23.3C161.937 22.8667 162.204 22.3833 162.404 21.85C162.604 21.2833 162.704 20.75 162.704 20.25C162.704 19.55 162.437 19.2 161.904 19.2C161.57 19.2 161.237 19.3833 160.904 19.75C160.604 20.1167 160.32 20.5833 160.054 21.15C159.787 21.6833 159.57 22.25 159.404 22.85C159.237 23.45 159.154 24 159.154 24.5Z" fill="url(#paint9_linear_649:1961)"/>
<path d="M169.685 22.9C169.951 22.4333 170.251 21.9 170.585 21.3C170.918 20.7 171.301 20.1333 171.735 19.6C172.168 19.0333 172.668 18.5667 173.235 18.2C173.801 17.8333 174.435 17.65 175.135 17.65C176.101 17.65 176.768 18 177.135 18.7C177.301 19.0333 177.385 19.4 177.385 19.8C177.385 20.2 177.551 20.65 177.885 21.15C178.318 21.8167 178.768 22.7333 179.235 23.9C179.735 25.0667 179.985 26.35 179.985 27.75C179.985 29.1167 179.835 30.4167 179.535 31.65C179.235 32.85 178.785 33.9167 178.185 34.85C177.585 35.75 176.851 36.4833 175.985 37.05C175.151 37.5833 174.185 37.85 173.085 37.85C171.951 37.85 170.935 37.4833 170.035 36.75C169.168 35.9833 168.735 34.9667 168.735 33.7C168.735 33.1333 168.918 32.6 169.285 32.1C169.651 31.5667 170.185 31.3 170.885 31.3C171.251 31.3 171.551 31.3833 171.785 31.55C172.018 31.6833 172.201 31.85 172.335 32.05C172.501 32.2167 172.635 32.3833 172.735 32.55C172.868 32.6833 173.035 32.75 173.235 32.75C173.835 32.75 174.318 32.4333 174.685 31.8C175.085 31.1667 175.285 30.0667 175.285 28.5C175.285 28 175.218 27.5167 175.085 27.05C174.951 26.55 174.818 26.1333 174.685 25.8C174.551 25.4667 174.451 25.1667 174.385 24.9C174.318 24.6333 174.218 24.5 174.085 24.5C173.951 24.5 173.801 24.6 173.635 24.8C173.501 24.9667 173.351 25.1833 173.185 25.45C173.051 25.7167 172.901 26.0167 172.735 26.35C172.601 26.65 172.468 26.9333 172.335 27.2C172.135 27.6 171.918 28.0167 171.685 28.45C171.451 28.85 171.201 29.2333 170.935 29.6C170.368 30.3333 169.718 30.7 168.985 30.7C168.585 30.7 168.201 30.5167 167.835 30.15C167.468 29.7833 167.285 29.3167 167.285 28.75C167.285 28.2833 167.401 27.75 167.635 27.15C167.868 26.55 168.118 25.9833 168.385 25.45C168.585 25.05 168.785 24.6333 168.985 24.2C169.218 23.7333 169.451 23.3 169.685 22.9Z" fill="url(#paint10_linear_649:1961)"/>
<defs>
<linearGradient id="paint0_linear_649:1961" x1="13.5" y1="19" x2="180" y2="19" gradientUnits="userSpaceOnUse">
<stop stop-color="#EB3A23"/>
<stop offset="1" stop-color="#F7D239"/>
</linearGradient>
<linearGradient id="paint1_linear_649:1961" x1="13.5" y1="19" x2="180" y2="19" gradientUnits="userSpaceOnUse">
<stop stop-color="#EB3A23"/>
<stop offset="1" stop-color="#F7D239"/>
</linearGradient>
<linearGradient id="paint2_linear_649:1961" x1="13.5" y1="19" x2="180" y2="19" gradientUnits="userSpaceOnUse">
<stop stop-color="#EB3A23"/>
<stop offset="1" stop-color="#F7D239"/>
</linearGradient>
<linearGradient id="paint3_linear_649:1961" x1="13.5" y1="19" x2="180" y2="19" gradientUnits="userSpaceOnUse">
<stop stop-color="#EB3A23"/>
<stop offset="1" stop-color="#F7D239"/>
</linearGradient>
<linearGradient id="paint4_linear_649:1961" x1="13.5" y1="19" x2="180" y2="19" gradientUnits="userSpaceOnUse">
<stop stop-color="#EB3A23"/>
<stop offset="1" stop-color="#F7D239"/>
</linearGradient>
<linearGradient id="paint5_linear_649:1961" x1="13.5" y1="19" x2="180" y2="19" gradientUnits="userSpaceOnUse">
<stop stop-color="#EB3A23"/>
<stop offset="1" stop-color="#F7D239"/>
</linearGradient>
<linearGradient id="paint6_linear_649:1961" x1="13.5" y1="19" x2="180" y2="19" gradientUnits="userSpaceOnUse">
<stop stop-color="#EB3A23"/>
<stop offset="1" stop-color="#F7D239"/>
</linearGradient>
<linearGradient id="paint7_linear_649:1961" x1="13.5" y1="19" x2="180" y2="19" gradientUnits="userSpaceOnUse">
<stop stop-color="#EB3A23"/>
<stop offset="1" stop-color="#F7D239"/>
</linearGradient>
<linearGradient id="paint8_linear_649:1961" x1="13.5" y1="19" x2="180" y2="19" gradientUnits="userSpaceOnUse">
<stop stop-color="#EB3A23"/>
<stop offset="1" stop-color="#F7D239"/>
</linearGradient>
<linearGradient id="paint9_linear_649:1961" x1="13.5" y1="19" x2="180" y2="19" gradientUnits="userSpaceOnUse">
<stop stop-color="#EB3A23"/>
<stop offset="1" stop-color="#F7D239"/>
</linearGradient>
<linearGradient id="paint10_linear_649:1961" x1="13.5" y1="19" x2="180" y2="19" gradientUnits="userSpaceOnUse">
<stop stop-color="#EB3A23"/>
<stop offset="1" stop-color="#F7D239"/>
</linearGradient>
</defs>
</svg>
